<?xml version="1.0" standalone="no"?>
<!DOCTYPE svg PUBLIC "-//W3C//DTD SVG 20010904//EN"
 "http://www.w3.org/TR/2001/REC-SVG-20010904/DTD/svg10.dtd">
<svg version="1.0" xmlns="http://www.w3.org/2000/svg"
 width="1280.000000pt" height="720.000000pt" viewBox="0 0 1280.000000 720.000000"
 preserveAspectRatio="xMidYMid meet">

<g transform="translate(0.000000,720.000000) scale(0.100000,-0.100000)"
fill="#000000" stroke="none">
<path d="M7513 6936 c-23 -8 -64 -30 -90 -49 -26 -20 -511 -500 -1078 -1066
l-1030 -1031 1135 -1135 1135 -1135 1045 1051 c575 579 1058 1072 1074 1096
20 31 31 61 34 97 9 109 56 58 -1031 1143 -649 648 -1006 998 -1032 1011 -56
27 -112 34 -162 18z m192 -1611 c202 -51 363 -217 411 -421 32 -135 2 -302
-75 -422 -39 -61 -131 -150 -191 -184 -88 -52 -166 -71 -280 -71 -157 0 -267
43 -379 147 -68 64 -123 148 -153 234 -32 94 -32 259 0 350 65 182 211 319
392 366 73 19 201 20 275 1z"/>
<path d="M4115 3588 c-601 -605 -1057 -1070 -1072 -1096 -33 -55 -36 -137 -9
-197 23 -49 1932 -1965 2015 -2023 50 -35 58 -37 131 -37 73 0 81 2 131 37 30
21 520 503 1089 1073 l1035 1035 -1130 1130 c-621 622 -1133 1130 -1136 1130
-4 0 -478 -473 -1054 -1052z m422 -673 c347 -117 493 -508 306 -824 -74 -124
-218 -226 -362 -257 -191 -40 -369 14 -511 156 -142 141 -195 315 -155 503 29
137 103 256 210 335 110 82 195 110 338 111 80 1 112 -4 174 -24z m1608 10
c141 -37 292 -159 353 -285 157 -323 5 -680 -338 -796 -40 -14 -84 -19 -160
-19 -161 0 -285 51 -395 161 -221 221 -221 571 -1 789 76 75 159 126 247 149
72 20 220 20 294 1z"/>
</g>
</svg>
